<svg xmlns="http://www.w3.org/2000/svg" xmlns:xlink="http://www.w3.org/1999/xlink" enable-background="new 0 0 30 30" height="30px" version="1.1" viewBox="0 0 32 32" width="30px" xml:space="preserve" fill="#007aff"><g><path d="M4,12c-2.209,0-4,1.791-4,4c0,2.209,1.791,4,4,4s4-1.791,4-4C8,13.791,6.209,12,4,12z M4,18 c-1.105,0-2-0.895-2-2c0-1.105,0.895-2,2-2s2,0.896,2,2C6,17.105,5.105,18,4,18z"/><path d="M28,12c-2.209,0-4,1.791-4,4c0,2.209,1.791,4,4,4c2.209,0,4-1.791,4-4C32,13.791,30.209,12,28,12z M28,18 c-1.105,0-2-0.895-2-2c0-1.105,0.895-2,2-2c1.104,0,2,0.896,2,2C30,17.105,29.104,18,28,18z"/><path d="M16,12c-2.209,0-4,1.791-4,4c0,2.209,1.791,4,4,4c2.209,0,4-1.791,4-4C20,13.791,18.209,12,16,12z M16,18 c-1.105,0-2-0.895-2-2c0-1.105,0.895-2,2-2c1.104,0,2,0.896,2,2C18,17.105,17.104,18,16,18z"/></g></svg>